# xmcd
#
# Track frame offsets:
#	150
#	14657
#	33981
#	55303
#	71070
#	83549
#	106861
#	128989
#	145300
#	161919
#	187738
#	208362
#
# Disc length: 3171 seconds
#
# Revision: 1
# Processed by: cddbd v1.5.2PL0 Copyright (c) Steve Scherf et al.
# Submitted via: audiograbber 1.83.01
#
DISCID=ab0c610c
DTITLE=Modern Earl - Devil's Playhouse
DYEAR=2008
DGENRE=Country
TTITLE0=Twelve Steppin
TTITLE1=Paid To Party
TTITLE2=Devil's Playhouse
TTITLE3=Hardly Livin'
TTITLE4=Hardly Livin' Jam
TTITLE5=Hennessee Sam
TTITLE6=Dirt Road To Damascus
TTITLE7=Ain't Complainin'
TTITLE8=Folsom Prison Blues
TTITLE9=Ringman Blues
TTITLE10=Will The Circle Be Unbroken
TTITLE11=In The Pines
EXTD=
EXTT0=
EXTT1=
EXTT2=
EXTT3=
EXTT4=
EXTT5=
EXTT6=
EXTT7=
EXTT8=
EXTT9=
EXTT10=
EXTT11=
PLAYORDER=
